<mxfile host="app.diagrams.net" agent="Mozilla/5.0 (Windows NT 10.0; Win64; x64) AppleWebKit/537.36 (KHTML, like Gecko) Chrome/136.0.0.0 Safari/537.36" version="27.0.9">
  <diagram name="Page-1" id="WVfsDs_8WznnNvAuUjFd">
    <mxGraphModel dx="670" dy="390" grid="1" gridSize="10" guides="1" tooltips="1" connect="1" arrows="1" fold="1" page="1" pageScale="1" pageWidth="850" pageHeight="1100" math="0" shadow="0">
      <root>
        <mxCell id="0" />
        <mxCell id="1" parent="0" />
        <mxCell id="_PtACEBgEOl78rhsVJv8-4" value="" style="rounded=0;whiteSpace=wrap;html=1;labelBackgroundColor=none;fillColor=#09555B;strokeColor=#BAC8D3;fontColor=#EEEEEE;" parent="1" vertex="1">
          <mxGeometry x="380" y="120" width="150" height="40" as="geometry" />
        </mxCell>
        <mxCell id="_PtACEBgEOl78rhsVJv8-5" value="" style="rounded=0;whiteSpace=wrap;html=1;labelBackgroundColor=none;fillColor=#09555B;strokeColor=#BAC8D3;fontColor=#EEEEEE;" parent="1" vertex="1">
          <mxGeometry x="380" y="190" width="150" height="40" as="geometry" />
        </mxCell>
        <mxCell id="_PtACEBgEOl78rhsVJv8-6" value="INPUT NUMBER" style="text;html=1;align=center;verticalAlign=middle;resizable=0;points=[];autosize=1;labelBackgroundColor=none;fontColor=#EEEEEE;" parent="1" vertex="1">
          <mxGeometry x="170" y="125" width="110" height="30" as="geometry" />
        </mxCell>
        <mxCell id="_PtACEBgEOl78rhsVJv8-7" value="IS PRIME" style="rounded=0;whiteSpace=wrap;html=1;labelBackgroundColor=none;fillColor=#1ba1e2;strokeColor=#006EAF;fontColor=#ffffff;" parent="1" vertex="1">
          <mxGeometry x="180" y="190" width="70" height="40" as="geometry" />
        </mxCell>
        <mxCell id="_PtACEBgEOl78rhsVJv8-9" value="CHECK PRIME" style="ellipse;whiteSpace=wrap;html=1;labelBackgroundColor=none;fillColor=#fa6800;strokeColor=#C73500;fontColor=#000000;" parent="1" vertex="1">
          <mxGeometry x="270" y="260" width="120" height="50" as="geometry" />
        </mxCell>
        <mxCell id="_PtACEBgEOl78rhsVJv8-19" value="INPUT NUMBER" style="rounded=0;whiteSpace=wrap;html=1;fillColor=#1ba1e2;fontColor=#ffffff;strokeColor=#006EAF;" parent="1" vertex="1">
          <mxGeometry x="180" y="120" width="120" height="35" as="geometry" />
        </mxCell>
      </root>
    </mxGraphModel>
  </diagram>
</mxfile>
